C:\Users\Nicos\Documents\OpenSimProjects\SprintingProject\Study1\PredictiveResults\IC_pred_Sprinting_optimum_28-October-2023__01-01-41_p02_maxVel_01___HTD_Minus_2_GRF.mot
version=1
nRows=5
nColumns=127
inDegrees=yes
endheader
time	ground_force_vx	ground_force_vy	ground_force_vz	ground_force_px	ground_force_py	ground_force_pz	ground_torque_x	ground_torque_y	ground_torque_z	1_ground_force_vx	1_ground_force_vy	1_ground_force_vz	1_ground_force_px	1_ground_force_py	1_ground_force_pz	1_ground_torque_x	1_ground_torque_y	1_ground_torque_z	2_ground_force_vx	2_ground_force_vy	2_ground_force_vz	2_ground_force_px	2_ground_force_py	2_ground_force_pz	2_ground_torque_x	2_ground_torque_y	2_ground_torque_z	3_ground_force_vx	3_ground_force_vy	3_ground_force_vz	3_ground_force_px	3_ground_force_py	3_ground_force_pz	3_ground_torque_x	3_ground_torque_y	3_ground_torque_z	4_ground_force_vx	4_ground_force_vy	4_ground_force_vz	4_ground_force_px	4_ground_force_py	4_ground_force_pz	4_ground_torque_x	4_ground_torque_y	4_ground_torque_z	5_ground_force_vx	5_ground_force_vy	5_ground_force_vz	5_ground_force_px	5_ground_force_py	5_ground_force_pz	5_ground_torque_x	5_ground_torque_y	5_ground_torque_z	6_ground_force_vx	6_ground_force_vy	6_ground_force_vz	6_ground_force_px	6_ground_force_py	6_ground_force_pz	6_ground_torque_x	6_ground_torque_y	6_ground_torque_z	7_ground_force_vx	7_ground_force_vy	7_ground_force_vz	7_ground_force_px	7_ground_force_py	7_ground_force_pz	7_ground_torque_x	7_ground_torque_y	7_ground_torque_z	8_ground_force_vx	8_ground_force_vy	8_ground_force_vz	8_ground_force_px	8_ground_force_py	8_ground_force_pz	8_ground_torque_x	8_ground_torque_y	8_ground_torque_z	9_ground_force_vx	9_ground_force_vy	9_ground_force_vz	9_ground_force_px	9_ground_force_py	9_ground_force_pz	9_ground_torque_x	9_ground_torque_y	9_ground_torque_z	10_ground_force_vx	10_ground_force_vy	10_ground_force_vz	10_ground_force_px	10_ground_force_py	10_ground_force_pz	10_ground_torque_x	10_ground_torque_y	10_ground_torque_z	11_ground_force_vx	11_ground_force_vy	11_ground_force_vz	11_ground_force_px	11_ground_force_py	11_ground_force_pz	11_ground_torque_x	11_ground_torque_y	11_ground_torque_z	12_ground_force_vx	12_ground_force_vy	12_ground_force_vz	12_ground_force_px	12_ground_force_py	12_ground_force_pz	12_ground_torque_x	12_ground_torque_y	12_ground_torque_z	13_ground_force_vx	13_ground_force_vy	13_ground_force_vz	13_ground_force_px	13_ground_force_py	13_ground_force_pz	13_ground_torque_x	13_ground_torque_y	13_ground_torque_z
0.056000	-63.311004	33.260042	11.292176	0.351253	-0.001501	0.431004	0.000000	0.000000	0.000000	-2.247748	1.220279	0.541438	0.308542	0.003642	0.454181	0.000000	0.000000	0.000000	-0.200868	0.102698	0.042510	0.278385	0.006331	0.447306	0.000000	0.000000	0.000000	-1.391497	0.695265	0.286741	0.280576	0.004272	0.425064	0.000000	0.000000	0.000000	-0.000002	0.000001	0.000001	0.195884	0.017228	0.481123	0.000000	0.000000	0.000000	-0.015413	0.007879	0.003713	0.249074	0.008889	0.443472	0.000000	0.000000	0.000000	-0.000000	0.000000	0.000000	0.131830	0.019118	0.428134	0.000000	0.000000	0.000000	-0.000000	0.000000	0.000000	-0.470160	0.218833	0.107569	0.000000	0.000000	0.000000	-0.000000	0.000000	0.000000	-0.455677	0.241613	0.094084	0.000000	0.000000	0.000000	-0.000000	0.000000	0.000000	-0.447817	0.253914	0.103523	0.000000	0.000000	0.000000	-0.000000	0.000000	0.000000	-0.454799	0.250965	0.124330	0.000000	0.000000	0.000000	-0.000000	0.000000	0.000000	-0.424671	0.297537	0.086873	0.000000	0.000000	0.000000	-0.000000	0.000000	0.000000	-0.444322	0.268083	0.112730	0.000000	0.000000	0.000000	-0.000000	0.000000	0.000000	-0.430338	0.324758	0.149555	0.000000	0.000000	0.000000
0.056630	-96.098251	50.589123	15.705400	0.354613	-0.002238	0.430555	0.000000	0.000000	0.000000	-4.322428	2.353110	0.983732	0.311776	0.002809	0.453585	0.000000	0.000000	0.000000	-0.436225	0.223137	0.085752	0.281761	0.005517	0.446693	0.000000	0.000000	0.000000	-2.660532	1.329411	0.507922	0.284057	0.003508	0.424443	0.000000	0.000000	0.000000	-0.000006	0.000003	0.000002	0.199036	0.016165	0.480276	0.000000	0.000000	0.000000	-0.037491	0.019176	0.008495	0.252443	0.008018	0.442765	0.000000	0.000000	0.000000	-0.000001	0.000000	0.000000	0.135171	0.018024	0.427054	0.000000	0.000000	0.000000	-0.000000	0.000000	0.000000	-0.458736	0.218607	0.106720	0.000000	0.000000	0.000000	-0.000000	0.000000	0.000000	-0.444564	0.241445	0.093300	0.000000	0.000000	0.000000	-0.000000	0.000000	0.000000	-0.437023	0.253846	0.102925	0.000000	0.000000	0.000000	-0.000000	0.000000	0.000000	-0.444024	0.250866	0.123709	0.000000	0.000000	0.000000	-0.000000	0.000000	0.000000	-0.414276	0.297537	0.086439	0.000000	0.000000	0.000000	-0.000000	0.000000	0.000000	-0.433691	0.268017	0.112175	0.000000	0.000000	0.000000	-0.000000	0.000000	0.000000	-0.420365	0.324704	0.149175	0.000000	0.000000	0.000000
0.058620	-211.350523	112.772763	18.338987	0.365108	-0.004310	0.429570	0.000000	0.000000	0.000000	-17.087790	9.443422	2.644925	0.321847	0.000406	0.452082	0.000000	0.000000	0.000000	-3.464523	1.814114	0.479659	0.292252	0.003114	0.445105	0.000000	0.000000	0.000000	-12.210051	6.229438	1.615563	0.294897	0.001234	0.422849	0.000000	0.000000	0.000000	-0.000203	0.000112	0.000051	0.208763	0.012916	0.477818	0.000000	0.000000	0.000000	-0.479455	0.250953	0.083117	0.262908	0.005394	0.440847	0.000000	0.000000	0.000000	-0.000039	0.000020	0.000012	0.145531	0.014512	0.423812	0.000000	0.000000	0.000000	-0.000000	0.000000	0.000000	-0.422635	0.217890	0.104113	0.000000	0.000000	0.000000	-0.000000	0.000000	0.000000	-0.409423	0.240901	0.090893	0.000000	0.000000	0.000000	-0.000000	0.000000	0.000000	-0.402860	0.253581	0.101047	0.000000	0.000000	0.000000	-0.000000	0.000000	0.000000	-0.409916	0.250504	0.121755	0.000000	0.000000	0.000000	-0.000000	0.000000	0.000000	-0.381398	0.297480	0.085062	0.000000	0.000000	0.000000	-0.000000	0.000000	0.000000	-0.400051	0.267759	0.110429	0.000000	0.000000	0.000000	-0.000000	0.000000	0.000000	-0.388812	0.324471	0.147960	0.000000	0.000000	0.000000
0.060062	-288.912382	158.338196	6.515376	0.372473	-0.005599	0.429318	0.000000	0.000000	0.000000	-44.740128	25.422740	4.206804	0.328879	-0.001144	0.451397	0.000000	0.000000	0.000000	-9.883534	5.379194	0.940751	0.299532	0.001504	0.444305	0.000000	0.000000	0.000000	-26.934559	14.244738	2.388087	0.302452	-0.000313	0.422062	0.000000	0.000000	0.000000	-0.002165	0.001247	0.000484	0.215459	0.010665	0.476254	0.000000	0.000000	0.000000	-2.297940	1.249164	0.310763	0.270172	0.003590	0.439769	0.000000	0.000000	0.000000	-0.000617	0.000334	0.000181	0.152731	0.011934	0.421628	0.000000	0.000000	0.000000	-0.000000	0.000000	0.000000	-0.396471	0.217368	0.102277	0.000000	0.000000	0.000000	-0.000000	0.000000	0.000000	-0.383931	0.240493	0.089200	0.000000	0.000000	0.000000	-0.000000	0.000000	0.000000	-0.378046	0.253342	0.099687	0.000000	0.000000	0.000000	-0.000000	0.000000	0.000000	-0.385138	0.250195	0.120341	0.000000	0.000000	0.000000	-0.000000	0.000000	0.000000	-0.357529	0.297386	0.084058	0.000000	0.000000	0.000000	-0.000000	0.000000	0.000000	-0.375619	0.267522	0.109162	0.000000	0.000000	0.000000	-0.000000	0.000000	0.000000	-0.365908	0.324243	0.147064	0.000000	0.000000	0.000000
0.060692	-319.669794	179.096719	-1.734234	0.375578	-0.006127	0.429340	0.000000	0.000000	0.000000	-66.062060	38.394225	4.525674	0.331836	-0.001787	0.451215	0.000000	0.000000	0.000000	-13.638952	7.621689	1.051412	0.302578	0.000820	0.444051	0.000000	0.000000	0.000000	-41.891722	22.716380	2.947532	0.305622	-0.000978	0.421818	0.000000	0.000000	0.000000	-0.005752	0.003408	0.001232	0.218248	0.009709	0.475629	0.000000	0.000000	0.000000	-4.134952	2.306600	0.495798	0.273214	0.002818	0.439384	0.000000	0.000000	0.000000	-0.002006	0.001114	0.000579	0.155757	0.010810	0.420719	0.000000	0.000000	0.000000	-0.000000	0.000000	0.000000	-0.385050	0.217140	0.101486	0.000000	0.000000	0.000000	-0.000000	0.000000	0.000000	-0.372795	0.240312	0.088474	0.000000	0.000000	0.000000	-0.000000	0.000000	0.000000	-0.367195	0.253225	0.099092	0.000000	0.000000	0.000000	-0.000000	0.000000	0.000000	-0.374302	0.250047	0.119722	0.000000	0.000000	0.000000	-0.000000	0.000000	0.000000	-0.347095	0.297331	0.083618	0.000000	0.000000	0.000000	-0.000000	0.000000	0.000000	-0.364935	0.267405	0.108608	0.000000	0.000000	0.000000	-0.000000	0.000000	0.000000	-0.355896	0.324128	0.146668	0.000000	0.000000	0.000000
